#!OML:ASF I:\Actors\actors\Patient Classification 1\Patient 1\Session 1\Subject1.ASF
:FULLY-SPECIFIED
:DEGREES
218
root -0.388012 17.6866 6.53704 28.1508 -1.42724 -13.147
lowerback 24.1909 0.176435 -3.08225
upperback 2.83976 -1.20712 -5.3422
thorax -10.4367 -0.57181 -3.81366
lowerneck -17.9848 3.62071 3.89601
upperneck 4.85601 3.5424 4.52114
head 4.31744 2.13847 1.10501
rclavicle -4.45278e-014 -3.02153e-014
rhumerus 9.4038 63.5183 -82.9396
rradius 56.5181
rwrist -15.1568
rhand -19.5584 -42.799
rfingers 7.12502
rthumb 6.76615 -72.6708
lclavicle -4.45278e-014 -3.02153e-014
lhumerus 7.47934 12.7575 89.2121
lradius 35.5599
lwrist 54.9399
lhand -21.8524 -5.96754
lfingers 7.12502
lthumb 4.55133 23.9636
rfemur -31.2659 27.3867 17.4579
rtibia 0.624096
rfoot -4.84262 -23.5244
rtoes 4.61314
lfemur -27.6479 -51.2847 21.0576
ltibia -7.39009
lfoot -61.6306 54.5944
ltoes 44.8573
219
root -0.378914 17.6892 6.53153 27.747 -1.69269 -13.0021
lowerback 23.9489 0.273772 -2.89849
upperback 2.68141 -1.00419 -5.13119
thorax -10.4748 -0.480756 -3.74683
lowerneck -18.3889 3.6137 4.17711
upperneck 5.46374 3.45965 4.02863
head 4.58288 2.0889 0.916877
rclavicle -3.18055e-015 5.40694e-014
rhumerus 10.1395 63.1967 -82.1965
rradius 56.4234
rwrist -16.3138
rhand -19.3131 -42.9759
rfingers 7.12502
rthumb 7.00293 -72.8401
lclavicle -3.18055e-015 5.40694e-014
lhumerus 7.81926 11.6065 89.1316
lradius 35.8743
lwrist 55.0902
lhand -22.5409 -5.86287
lfingers 7.12502
lthumb 3.88649 24.0814
rfemur -30.9421 27.5317 17.332
rtibia 0.781148
rfoot -4.79631 -23.546
rtoes 4.38813
lfemur -26.9231 -51.3562 20.0943
ltibia -7.33364
lfoot -61.2266 54.7928
ltoes 44.6837
220
root -0.365797 17.6898 6.52731 27.3434 -1.97623 -12.7952
lowerback 23.5817 0.365381 -2.66545
upperback 2.50387 -0.791571 -4.93542
thorax -10.4674 -0.387602 -3.72607
lowerneck -18.7179 3.62545 4.51417
upperneck 6.06107 3.39472 3.55903
head 4.83478 2.04848 0.725618
rclavicle 0 1.74931e-014
rhumerus 10.892 62.6695 -81.4302
rradius 56.4698
rwrist -17.3029
rhand -19.2664 -43.3074
rfingers 7.12502
rthumb 7.04797 -73.1701
lclavicle 0 1.74931e-014
lhumerus 8.11821 10.0229 89.0247
lradius 36.4777
lwrist 55.4393
lhand -23.2931 -5.7388
lfingers 7.12502
lthumb 3.16009 24.2175
rfemur -30.6085 27.6558 17.128
rtibia 0.906049
rfoot -4.77653 -23.5907
rtoes 4.15584
lfemur -26.1668 -51.4529 19.0347
ltibia -7.3023
lfoot -60.773 55.0067
ltoes 44.4937
221
root -0.351543 17.6908 6.52371 26.9218 -2.23926 -12.5423
lowerback 23.1396 0.428702 -2.40275
upperback 2.27347 -0.6067 -4.73112
thorax -10.4793 -0.308414 -3.70301
lowerneck -18.695 3.48648 4.57387
upperneck 6.38402 3.19365 3.43425
head 4.93604 1.94862 0.661514
rclavicle 4.13472e-014 -4.45278e-014
rhumerus 11.4513 61.9387 -80.8971
rradius 56.595
rwrist -17.7329
rhand -19.3872 -43.4792
rfingers 7.12502
rthumb 6.93138 -73.3457
lclavicle 4.13472e-014 -4.45278e-014
lhumerus 8.23647 8.04998 88.8516
lradius 37.4984
lwrist 55.8974
lhand -23.9506 -5.6517
lfingers 7.12502
lthumb 2.52511 24.3131
rfemur -30.2517 27.7428 16.8983
rtibia 1.04651
rfoot -4.775 -23.6796
rtoes 3.93116
lfemur -25.3985 -51.5676 17.9502
ltibia -7.33285
lfoot -60.3212 55.2567
ltoes 44.2096
222
root -0.339094 17.6934 6.52133 26.4183 -2.56589 -12.3779
lowerback 22.6929 0.50627 -2.12528
upperback 2.03683 -0.397876 -4.49529
thorax -10.4926 -0.217941 -3.65971
lowerneck -18.3474 3.04367 3.94449
upperneck 6.3042 2.70413 4.07038
head 4.84059 1.73106 0.906551
rclavicle -1.27222e-014 -3.49861e-014
rhumerus 12.0023 61.0141 -80.4133
rradius 56.8846
rwrist -17.6335
rhand -19.3618 -43.4502
rfingers 7.12502
rthumb 6.95589 -73.3159
lclavicle -1.27222e-014 -3.49861e-014
lhumerus 8.28363 5.70204 88.5919
lradius 39.0743
lwrist 56.7541
lhand -24.6361 -5.62011
lfingers 7.12502
lthumb 1.86303 24.3515
rfemur -29.7987 27.9605 16.7961
rtibia 1.21189
rfoot -4.76407 -23.7916
rtoes 3.67109
lfemur -24.4101 -51.6356 16.7757
ltibia -7.38577
lfoot -59.8434 55.5864
ltoes 43.8207
223
root -0.326329 17.6956 6.52078 25.829 -2.97591 -12.1954
lowerback 22.2344 0.600054 -1.92827
upperback 1.82347 -0.187912 -4.26046
thorax -10.4711 -0.122908 -3.56947
lowerneck -18.527 2.93524 3.98574
upperneck 6.67455 2.5396 3.89085
head 4.98861 1.64824 0.835474
rclavicle -1.43125e-014 -4.13472e-014
rhumerus 12.7017 59.9433 -79.7545
rradius 57.4815
rwrist -17.4776
rhand -19.3039 -43.4178
rfingers 7.12502
rthumb 7.01182 -73.2817
lclavicle -1.43125e-014 -4.13472e-014
lhumerus 8.42053 3.35582 88.3382
lradius 41.0256
lwrist 58.1228
lhand -24.6869 -5.84302
lfingers 7.12502
lthumb 1.81399 24.129
rfemur -29.2416 28.2608 16.6953
rtibia 1.36227
rfoot -4.80181 -23.8745
rtoes 3.41182
lfemur -23.2733 -51.6993 15.3885
ltibia -7.34275
lfoot -59.1489 56.0576
ltoes 43.1583
224
root -0.31163 17.696 6.52219 25.2041 -3.36517 -11.8758
lowerback 21.7182 0.675702 -1.79335
upperback 1.58398 -0.0161653 -4.02613
thorax -10.4482 -0.0424964 -3.43082
lowerneck -18.634 2.82852 4.04557
upperneck 6.98756 2.38965 3.63603
head 5.10788 1.56515 0.736435
rclavicle 1.90833e-014 -8.42847e-014
rhumerus 13.0344 58.5535 -79.3287
rradius 58.4642
rwrist -17.4074
rhand -19.5834 -43.3501
rfingers 7.12502
rthumb 6.74199 -73.2228
lclavicle 1.90833e-014 -8.42847e-014
lhumerus 8.57446 0.730763 88.1506
lradius 43.3955
lwrist 58.6975
lhand -25.701 -4.51383
lfingers 7.12502
lthumb 0.834525 25.4643
rfemur -28.5055 27.8605 16.8411
rtibia 1.54036
rfoot -4.7313 -23.28
rtoes 2.86854
lfemur -22.3125 -51.8228 13.9263
ltibia -7.11839
lfoot -58.1599 56.7152
ltoes 42.1268
225
root -0.297725 17.6958 6.52521 24.5293 -3.68664 -11.5638
lowerback 21.193 0.740049 -1.57227
upperback 1.267 0.162296 -3.75097
thorax -10.5056 0.0376987 -3.29981
lowerneck -18.6281 2.67186 3.93569
upperneck 7.39513 2.21423 3.41808
head 5.23683 1.46795 0.671852
rclavicle -1.43125e-014 2.54444e-014
rhumerus 12.7752 56.8322 -79.2923
rradius 59.9104
rwrist -17.4532
rhand -20.1418 -43.2654
rfingers 7.12502
rthumb 6.20295 -73.1545
lclavicle -1.43125e-014 2.54444e-014
lhumerus 8.67005 -1.90153 88.0808
lradius 46.002
lwrist 58.8814
lhand -25.7314 -5.02484
lfingers 7.12502
lthumb 0.805212 24.9534
rfemur -27.7243 27.2917 17.1075
rtibia 1.80407
rfoot -4.69646 -22.6101
rtoes 2.12328
lfemur -21.4317 -51.9765 12.5483
ltibia -6.82187
lfoot -56.9306 57.5682
ltoes 40.9086
226
root -0.284728 17.6962 6.53185 23.747 -4.03225 -11.2936
lowerback 20.7021 0.807602 -1.32939
upperback 0.899518 0.347463 -3.45923
thorax -10.6369 0.119707 -3.1668
lowerneck -18.4169 2.50939 3.79754
upperneck 7.77476 2.05397 3.18829
head 5.32424 1.37344 0.605716
rclavicle -6.36111e-015 -2.70347e-014
rhumerus 12.5641 55.1765 -78.9967
rradius 61.8283
rwrist -17.7798
rhand -20.5872 -43.4491
rfingers 7.12502
rthumb 5.77291 -73.3505
lclavicle -6.36111e-015 -2.70347e-014
lhumerus 8.65017 -5.00699 87.9087
lradius 49.5467
lwrist 60.3631
lhand -27.1617 -6.47492
lfingers 7.12502
lthumb -0.576267 23.504
rfemur -26.8173 26.7928 17.4636
rtibia 2.08
rfoot -4.72154 -21.9768
rtoes 1.0782
lfemur -20.2039 -52.1602 10.9693
ltibia -6.62586
lfoot -55.8534 58.3094
ltoes 39.9065
227
root -0.270694 17.6951 6.54418 22.893 -4.38645 -11.0053
lowerback 20.1514 0.830099 -1.10564
upperback 0.549851 0.467359 -3.19712
thorax -10.7164 0.171713 -3.03376
lowerneck -18.277 2.43552 3.84633
upperneck 8.32925 1.97284 2.84665
head 5.48139 1.3188 0.484733
rclavicle -3.33958e-014 1.59028e-015
rhumerus 12.7848 53.715 -78.224
rradius 64.0743
rwrist -18.3484
rhand -20.6879 -43.7865
rfingers 7.12502
rthumb 5.67567 -73.6904
lclavicle -3.33958e-014 1.59028e-015
lhumerus 8.95569 -7.82956 87.5746
lradius 52.7754
lwrist 60.6062
lhand -27.494 -6.91921
lfingers 7.12502
lthumb -0.897204 23.0586
rfemur -25.7994 26.2451 17.851
rtibia 2.36431
rfoot -4.74964 -21.2837
rtoes -0.116254
lfemur -18.7791 -52.3787 9.19965
ltibia -6.42759
lfoot -55.0047 58.8803
ltoes 39.0137
228
root -0.256451 17.692 6.56055 22.0107 -4.69069 -10.6766
lowerback 19.5139 0.801163 -0.898432
upperback 0.22077 0.51358 -2.96762
thorax -10.7251 0.189783 -2.90298
lowerneck -18.4373 2.41723 3.99046
upperneck 9.31273 1.91671 2.50242
head 5.82512 1.28923 0.357179
rclavicle -1.74931e-014 -1.11319e-014
rhumerus 13.2351 52.2631 -77.2192
rradius 66.5949
rwrist -18.8747
rhand -19.8077 -43.9831
rfingers 7.12502
rthumb 6.52547 -73.8625
lclavicle -1.74931e-014 -1.11319e-014
lhumerus 9.60368 -11.3984 86.8671
lradius 56.4423
lwrist 58.4753
lhand -29.041 -5.06403
lfingers 7.12502
lthumb -2.39133 24.9023
rfemur -24.7735 25.6816 18.173
rtibia 2.69809
rfoot -4.92835 -20.6151
rtoes -0.620544
lfemur -17.4896 -52.6059 7.48156
ltibia -6.11251
lfoot -53.8185 59.6435
ltoes 37.6995
229
root -0.242908 17.688 6.58068 21.078 -4.95891 -10.3503
lowerback 18.8662 0.78973 -0.677241
upperback -0.154266 0.582481 -2.73746
thorax -10.7762 0.217096 -2.7872
lowerneck -18.5421 2.35091 4.07048
upperneck 10.4047 1.81384 2.18378
head 6.19559 1.23689 0.241658
rclavicle 8.74653e-015 -2.8625e-014
rhumerus 13.6018 50.8286 -76.0282
rradius 69.2921
rwrist -18.4778
rhand -17.3191 -43.9033
rfingers 7.12502
rthumb 8.92742 -73.6944
lclavicle 8.74653e-015 -2.8625e-014
lhumerus 10.5384 -14.3208 86.2119
lradius 60.0342
lwrist 58.2966
lhand -27.994 -6.04688
lfingers 7.12502
lthumb -1.38014 23.9284
rfemur -23.7217 25.2723 18.4425
rtibia 3.05757
rfoot -5.21014 -20.1159
rtoes -0.866742
lfemur -16.2198 -52.8339 5.79068
ltibia -5.74161
lfoot -52.026 60.6803
ltoes 35.8085
230
root -0.230311 17.6827 6.6044 20.0765 -5.14175 -10.0329
lowerback 18.2709 0.773063 -0.420024
upperback -0.597707 0.64903 -2.49107
thorax -10.9313 0.24026 -2.67679
lowerneck -18.3355 2.25924 4.15339
upperneck 11.4106 1.71415 1.78575
head 6.4897 1.17468 0.0942377
rclavicle -4.21423e-014 -3.97569e-014
rhumerus 13.7545 49.4127 -74.8049
rradius 71.9884
rwrist -16.6749
rhand -18.0429 -43.63
rfingers 7.12502
rthumb 8.22897 -73.4498
lclavicle -4.21423e-014 -3.97569e-014
lhumerus 11.6143 -17.2764 85.5479
lradius 63.9835
lwrist 56.8586
lhand -27.2955 -7.11756
lfingers 7.12502
lthumb -0.705472 22.861
rfemur -22.5534 24.9303 18.7307
rtibia 3.3577
rfoot -5.45427 -19.7478
rtoes -1.52637
lfemur -14.8454 -53.1415 4.04101
ltibia -5.34497
lfoot -49.8871 61.7892
ltoes 33.5218
231
root -0.218163 17.6773 6.63128 19.05 -5.23226 -9.64593
lowerback 17.689 0.712457 -0.206723
upperback -1.08995 0.644608 -2.24696
thorax -11.1507 0.231183 -2.5262
lowerneck -17.8833 2.22365 4.36816
upperneck 12.4092 1.7083 1.2003
head 6.7453 1.14486 -0.129109
rclavicle 1.27222e-014 6.36111e-015
rhumerus 13.7077 47.8575 -73.7194
rradius 74.9618
rwrist -15.5686
rhand -21.4197 -43.8272
rfingers 7.12502
rthumb 4.9691 -73.7489
lclavicle 1.27222e-014 6.36111e-015
lhumerus 13.0426 -19.9653 84.8106
lradius 67.7172
lwrist 54.3525
lhand -26.4282 -7.36069
lfingers 7.12502
lthumb 0.132158 22.619
rfemur -21.3348 24.6217 18.9102
rtibia 3.60886
rfoot -5.7717 -19.486
rtoes -1.97865
lfemur -13.4185 -53.5415 2.18662
ltibia -4.94567
lfoot -47.8335 62.7466
ltoes 31.3164
